<?xml version="1.0" encoding="UTF-8"?>
<svg id="Capa_1" data-name="Capa 1" xmlns="http://www.w3.org/2000/svg" viewBox="0 0 72.81 66.15">
  <defs>
    <style>
      .cls-1 {
        fill: none;
        stroke: #f4ece5;
        stroke-linecap: round;
        stroke-linejoin: round;
        stroke-width: 3px;
      }
    </style>
  </defs>
  <path class="cls-1" d="M59.81,28.06v-7.85c0-2.89-2.34-5.24-5.24-5.24h-31.42c-2.89,0-5.24,2.34-5.24,5.24v7.85"/>
  <path class="cls-1" d="M12.68,46.39c0,2.89,2.34,5.24,5.24,5.24h41.89c2.89,0,5.24-2.34,5.24-5.24v-13.09c0-2.89-2.34-5.24-5.24-5.24s-5.24,2.34-5.24,5.24v3.93c0,.72-.59,1.31-1.31,1.31h-28.8c-.72,0-1.31-.59-1.31-1.31v-3.93c0-2.89-2.34-5.24-5.24-5.24s-5.24,2.34-5.24,5.24v13.09Z"/>
  <path class="cls-1" d="M17.91,51.62v5.24"/>
  <path class="cls-1" d="M59.81,51.62v5.24"/>
  <path class="cls-1" d="M38.86,14.97v23.56"/>
</svg>